<svg width="33" height="33" viewBox="0 0 33 33" fill="none" xmlns="http://www.w3.org/2000/svg">
<path d="M33 16.6011C33 7.43232 25.613 0 16.5021 0C7.38695 0.00206224 0 7.43232 0 16.6031C0 24.8871 6.03412 31.7544 13.9201 33V29V21.3999H9.73378V16.6031H13.9243V12.9426C13.9243 8.78309 16.3886 6.48575 20.1564 6.48575C21.9629 6.48575 23.8498 6.80952 23.8498 6.80952V10.8928H21.769C19.7212 10.8928 19.0819 12.1734 19.0819 13.4871V16.6011H23.656L22.9259 21.3978H19.0799V29V32.9979C26.9659 31.7523 33 24.8851 33 16.6011Z" fill="white"/>
<path d="M19.0799 32.9979V29H13.9201V33L19.0799 32.9979Z" fill="white"/>
</svg>
