<svg width="33" height="33" viewBox="0 0 33 33" fill="none" xmlns="http://www.w3.org/2000/svg">
<path d="M16.5 0C7.38817 0 0 7.38817 0 16.5C0 25.6118 7.38817 33 16.5 33C25.6118 33 33 25.6118 33 16.5C33 7.38817 25.6118 0 16.5 0ZM22.6507 23.3357C21.1554 24.7132 19.115 25.5234 16.6805 25.5234C13.1558 25.5234 10.1063 23.5015 8.62199 20.555C8.0106 19.3359 7.66071 17.9585 7.66071 16.5C7.66071 15.0415 8.0106 13.6641 8.62199 12.445C10.1063 9.49487 13.1558 7.47288 16.6805 7.47288C19.1113 7.47288 21.1517 8.36786 22.717 9.82266L20.1315 12.4118C19.196 11.5169 18.0064 11.0638 16.6842 11.0638C14.3344 11.0638 12.3455 12.6512 11.6347 14.7837C11.4542 15.3251 11.3511 15.9033 11.3511 16.5C11.3511 17.0967 11.4542 17.6749 11.6347 18.2163C12.3455 20.3488 14.3344 21.9362 16.6805 21.9362C17.8959 21.9362 18.9271 21.6157 19.7337 21.0743C20.6913 20.4335 21.3248 19.4796 21.5347 18.3489H16.6805V14.8574H25.1772C25.284 15.4503 25.3393 16.0654 25.3393 16.7026C25.3393 19.4538 24.3559 21.7631 22.6507 23.3357Z" fill="white"/>
</svg>
