<svg width="33" height="33" viewBox="0 0 33 33" fill="none" xmlns="http://www.w3.org/2000/svg">
<path d="M16.5 -0.000488281C7.38719 -0.000488281 0 7.3867 0 16.4995C0 25.6123 7.38719 32.9995 16.5 32.9995C25.6128 32.9995 33 25.6123 33 16.4995C33 7.3867 25.6128 -0.000488281 16.5 -0.000488281ZM12.4609 23.3384H9.11969V12.5859H12.4609V23.3384ZM10.7697 11.2659C9.71437 11.2659 9.03203 10.5183 9.03203 9.59357C9.03203 8.64998 9.735 7.92467 10.8127 7.92467C11.8903 7.92467 12.5503 8.64998 12.5709 9.59357C12.5709 10.5183 11.8903 11.2659 10.7697 11.2659ZM24.6641 23.3384H21.3228V17.3795C21.3228 15.9925 20.8381 15.0506 19.6298 15.0506C18.7069 15.0506 18.1586 15.6883 17.9163 16.3019C17.8269 16.5201 17.8045 16.8295 17.8045 17.1372V23.3367H14.4616V16.0148C14.4616 14.6725 14.4186 13.5501 14.3739 12.5842H17.2769L17.4298 14.0778H17.4969C17.9369 13.3765 19.0145 12.3419 20.8175 12.3419C23.0158 12.3419 24.6641 13.8148 24.6641 16.9808V23.3384Z" fill="white"/>
</svg>
