<svg width="33" height="33" viewBox="0 0 33 33" fill="none" xmlns="http://www.w3.org/2000/svg">
<path fill-rule="evenodd" clip-rule="evenodd" d="M16.5 33C25.6127 33 33 25.6128 33 16.5C33 7.38721 25.6127 0 16.5 0C7.38733 0 0 7.38721 0 16.5C0 25.6128 7.38733 33 16.5 33ZM24.1685 13.2246C24.1685 18.2295 20.4526 24 13.661 24C11.6616 24.0015 9.70068 23.4136 8 22.2988C9.94519 22.5444 11.9044 21.9814 13.4664 20.7275C12.6987 20.7144 11.9532 20.4531 11.3289 19.9795C10.7153 19.5142 10.2556 18.856 10.0149 18.0981C10.5684 18.2065 11.1388 18.1851 11.6821 18.0322C10.853 17.8633 10.103 17.3994 9.55591 16.7178C9.01587 16.0425 8.71997 15.1953 8.71997 14.3198V14.272C9.23621 14.5669 9.8103 14.7295 10.3962 14.7471C9.61328 14.2114 9.06091 13.3906 8.84827 12.4517C8.63599 11.5107 8.78149 10.519 9.2533 9.69092C10.1885 10.8672 11.3448 11.8237 12.6486 12.499C13.9652 13.1826 15.3997 13.5732 16.8639 13.6479C16.6801 12.8359 16.7627 11.9819 17.0979 11.2261C17.4392 10.4604 18.0095 9.83545 18.7201 9.44873C19.4409 9.05469 20.2615 8.91504 21.0624 9.05029C21.8585 9.18164 22.5933 9.58252 23.1571 10.1929C23.984 10.0259 24.7771 9.71582 25.5028 9.27441C25.2212 10.1602 24.6437 10.9058 23.8794 11.3706C24.6106 11.2812 25.325 11.0796 26 10.7739C25.5005 11.5386 24.8766 12.2031 24.1572 12.7354C24.1685 12.8975 24.1685 13.061 24.1685 13.2246Z" fill="white"/>
</svg>
